<svg xmlns="http://www.w3.org/2000/svg" width="12.825" height="12.825" viewBox="0 0 12.825 12.825"><defs><style>.a{fill:#127fba;}</style></defs><path class="a" d="M4.947,4.278H.936A.937.937,0,0,1,0,3.342V.936A.937.937,0,0,1,.936,0H4.947a.937.937,0,0,1,.936.936V3.342A.937.937,0,0,1,4.947,4.278Z"/><path class="a" d="M4.947,220.819H.936A.937.937,0,0,1,0,219.883v-5.615a.937.937,0,0,1,.936-.936H4.947a.937.937,0,0,1,.936.936v5.615A.937.937,0,0,1,4.947,220.819Z" transform="translate(0 -207.994)"/><path class="a" d="M282.279,345.61h-4.011a.937.937,0,0,1-.936-.936v-2.407a.937.937,0,0,1,.936-.936h4.011a.937.937,0,0,1,.936.936v2.407A.937.937,0,0,1,282.279,345.61Z" transform="translate(-270.39 -332.786)"/><path class="a" d="M282.279,7.487h-4.011a.937.937,0,0,1-.936-.936V.936A.937.937,0,0,1,278.268,0h4.011a.937.937,0,0,1,.936.936V6.551A.937.937,0,0,1,282.279,7.487Z" transform="translate(-270.39)"/></svg>