<svg xmlns="http://www.w3.org/2000/svg" width="59.87" height="71.76" viewBox="0 0 59.87 71.76"><defs><style>.a{fill:#127fba;}</style></defs><path class="a" d="M104.315,34.567A16.724,16.724,0,0,0,116.536,29.5a16.725,16.725,0,0,0,5.063-12.22,16.726,16.726,0,0,0-5.064-12.22,17.28,17.28,0,0,0-24.441,0,16.724,16.724,0,0,0-5.064,12.22A16.725,16.725,0,0,0,92.1,29.5,16.73,16.73,0,0,0,104.315,34.567ZM95.069,8.037a13.074,13.074,0,0,1,18.494,0,12.5,12.5,0,0,1,3.832,9.247,12.5,12.5,0,0,1-3.832,9.247,13.073,13.073,0,0,1-18.494,0,12.493,12.493,0,0,1-3.832-9.247A12.494,12.494,0,0,1,95.069,8.037Zm0,0" transform="translate(-74.833 0)"/><path class="a" d="M59.725,267.834a42.688,42.688,0,0,0-.581-4.534,35.729,35.729,0,0,0-1.115-4.559,22.528,22.528,0,0,0-1.875-4.252,16.028,16.028,0,0,0-2.826-3.683,12.463,12.463,0,0,0-4.06-2.551,14.033,14.033,0,0,0-5.183-.938,5.261,5.261,0,0,0-2.809,1.191c-.842.549-1.827,1.184-2.926,1.887a16.766,16.766,0,0,1-3.786,1.668,14.7,14.7,0,0,1-9.262,0,16.718,16.718,0,0,1-3.784-1.668c-1.089-.7-2.074-1.331-2.929-1.888a5.255,5.255,0,0,0-2.808-1.191,14.012,14.012,0,0,0-5.182.939,12.448,12.448,0,0,0-4.06,2.551,16.029,16.029,0,0,0-2.825,3.682,22.564,22.564,0,0,0-1.874,4.252A35.8,35.8,0,0,0,.725,263.3a42.4,42.4,0,0,0-.581,4.536c-.1,1.37-.143,2.8-.143,4.237a11.916,11.916,0,0,0,3.539,9.015,12.739,12.739,0,0,0,9.12,3.326H47.212a12.74,12.74,0,0,0,9.119-3.326,11.912,11.912,0,0,0,3.54-9.016C59.87,270.626,59.821,269.2,59.725,267.834Zm-6.294,10.207a8.577,8.577,0,0,1-6.22,2.167H12.658a8.578,8.578,0,0,1-6.22-2.167,7.781,7.781,0,0,1-2.233-5.969c0-1.345.044-2.672.133-3.947a38.236,38.236,0,0,1,.526-4.084,31.585,31.585,0,0,1,.981-4.019,18.367,18.367,0,0,1,1.525-3.457,11.886,11.886,0,0,1,2.077-2.721,8.265,8.265,0,0,1,2.7-1.679,9.677,9.677,0,0,1,3.312-.639c.147.078.41.228.834.5.864.563,1.861,1.206,2.962,1.91a20.843,20.843,0,0,0,4.753,2.124,18.9,18.9,0,0,0,11.849,0,20.86,20.86,0,0,0,4.755-2.125c1.127-.721,2.1-1.345,2.96-1.909.425-.276.687-.427.834-.5a9.683,9.683,0,0,1,3.313.639,8.277,8.277,0,0,1,2.7,1.679,11.848,11.848,0,0,1,2.077,2.722,18.3,18.3,0,0,1,1.526,3.456A31.509,31.509,0,0,1,55,264.042a38.572,38.572,0,0,1,.526,4.085h0c.089,1.27.134,2.6.135,3.945A7.78,7.78,0,0,1,53.431,278.041Zm0,0" transform="translate(0 -212.653)"/></svg>