<svg xmlns="http://www.w3.org/2000/svg" width="12.825" height="12.825" viewBox="0 0 12.825 12.825"><defs><style>.a{fill:#111;}</style></defs><path class="a" d="M4.947,4.278H.936A.937.937,0,0,1,0,3.342V.936A.937.937,0,0,1,.936,0H4.947a.937.937,0,0,1,.936.936V3.342A.937.937,0,0,1,4.947,4.278ZM.936.8A.134.134,0,0,0,.8.936V3.342a.134.134,0,0,0,.134.134H4.947a.134.134,0,0,0,.134-.134V.936A.134.134,0,0,0,4.947.8Zm0,0"/><path class="a" d="M4.947,220.819H.936A.937.937,0,0,1,0,219.883v-5.615a.937.937,0,0,1,.936-.936H4.947a.937.937,0,0,1,.936.936v5.615A.937.937,0,0,1,4.947,220.819ZM.936,214.134a.134.134,0,0,0-.134.134v5.615a.134.134,0,0,0,.134.134H4.947a.134.134,0,0,0,.134-.134v-5.615a.134.134,0,0,0-.134-.134Zm0,0" transform="translate(0 -207.994)"/><path class="a" d="M282.279,345.61h-4.011a.937.937,0,0,1-.936-.936v-2.407a.937.937,0,0,1,.936-.936h4.011a.937.937,0,0,1,.936.936v2.407A.937.937,0,0,1,282.279,345.61Zm-4.011-3.476a.134.134,0,0,0-.134.134v2.407a.134.134,0,0,0,.134.134h4.011a.134.134,0,0,0,.134-.134v-2.407a.134.134,0,0,0-.134-.134Zm0,0" transform="translate(-270.39 -332.786)"/><path class="a" d="M282.279,7.487h-4.011a.937.937,0,0,1-.936-.936V.936A.937.937,0,0,1,278.268,0h4.011a.937.937,0,0,1,.936.936V6.551A.937.937,0,0,1,282.279,7.487ZM278.268.8a.134.134,0,0,0-.134.134V6.551a.134.134,0,0,0,.134.134h4.011a.134.134,0,0,0,.134-.134V.936A.134.134,0,0,0,282.279.8Zm0,0" transform="translate(-270.39)"/></svg>