<svg xmlns="http://www.w3.org/2000/svg" width="73.808" height="66.76" viewBox="0 0 73.808 66.76"><defs><style>.a{fill:#127fba;}.b{fill:none;stroke:#127fba;stroke-width:4px;}</style></defs><g transform="translate(-36 -279)"><path class="a" d="M338.778,48.625H275.694a5.368,5.368,0,0,1-5.362-5.362V5.362A5.368,5.368,0,0,1,275.694,0h63.084a5.368,5.368,0,0,1,5.362,5.362v37.9A5.368,5.368,0,0,1,338.778,48.625ZM275.694,4.6a.766.766,0,0,0-.766.766v37.9a.767.767,0,0,0,.766.766h63.084a.766.766,0,0,0,.766-.766V5.362a.766.766,0,0,0-.766-.766Zm0,0" transform="translate(-234.332 279)"/><path class="a" d="M338.778,14.249H275.694a5.368,5.368,0,0,1-5.362-5.362V5.362A5.368,5.368,0,0,1,275.694,0h63.084a5.368,5.368,0,0,1,5.362,5.362V8.887A5.368,5.368,0,0,1,338.778,14.249ZM275.694,4.6a.766.766,0,0,0-.766.766V8.887a.767.767,0,0,0,.766.766h63.084a.766.766,0,0,0,.766-.766V5.362a.766.766,0,0,0-.766-.766Zm0,0" transform="translate(-234.332 331.511)"/><path class="b" d="M14.469,7.321,2.468.226A1.627,1.627,0,0,0,0,1.634V15.82a1.635,1.635,0,0,0,2.468,1.408l12-7.091a1.635,1.635,0,0,0,0-2.816Z" transform="translate(66.589 294.777)"/></g></svg>