<svg xmlns="http://www.w3.org/2000/svg" width="60" height="60" viewBox="0 0 60 60"><defs><style>.a{fill:#00b94d;}</style></defs><g transform="translate(-3.375 -3.375)"><path class="a" d="M41.329,14.99,38.79,12.379a.546.546,0,0,0-.4-.173h0a.524.524,0,0,0-.4.173l-17.6,17.726-6.4-6.4a.558.558,0,0,0-.808,0l-2.567,2.567a.575.575,0,0,0,0,.822l8.077,8.077a2.554,2.554,0,0,0,1.688.822,2.677,2.677,0,0,0,1.673-.793h.014L41.343,15.812A.617.617,0,0,0,41.329,14.99Z" transform="translate(7.421 9.284)"/><path class="a" d="M33.375,7.413A25.966,25.966,0,0,1,51.736,51.736,25.966,25.966,0,0,1,15.014,15.014a25.79,25.79,0,0,1,18.361-7.6m0-4.038a30,30,0,1,0,30,30,30,30,0,0,0-30-30Z" transform="translate(0 0)"/></g></svg>