<svg xmlns="http://www.w3.org/2000/svg" width="14.303" height="16.6" viewBox="0 0 14.303 16.6"><defs><style>.a{fill:#127fba;stroke:#fff;stroke-width:0.6px;}</style></defs><path class="a" d="M32.567,37.682a6.7,6.7,0,0,0,.932,3.439,6.819,6.819,0,0,0,2.507,2.494,6.638,6.638,0,0,0,3.426.919,6.78,6.78,0,0,0,3.452-.906,6.619,6.619,0,0,0,2.481-2.481,6.815,6.815,0,0,0,.906-3.452,1.12,1.12,0,0,0-.315-.8,1,1,0,0,0-.774-.328,1.12,1.12,0,0,0-1.116,1.129,4.661,4.661,0,0,1-4.66,4.66,4.383,4.383,0,0,1-3.242-1.365,4.527,4.527,0,0,1-1.339-3.295,4.849,4.849,0,0,1,1.037-3.032,3.263,3.263,0,0,1,2.415-1.444l-.5.486a1.12,1.12,0,0,0-.315.761,1.158,1.158,0,0,0,.315.788,1.086,1.086,0,0,0,1.588,0l2.415-2.389a.96.96,0,0,0,.315-.814.874.874,0,0,0-.315-.748l-2.389-2.454a1.124,1.124,0,0,0-1.575.013,1.071,1.071,0,0,0-.328.788,1.1,1.1,0,0,0,.315.8l.5.473a6.752,6.752,0,0,0-4.1,2.363A6.6,6.6,0,0,0,32.567,37.682Z" transform="translate(-32.267 -28.233)"/></svg>