<svg xmlns="http://www.w3.org/2000/svg" width="16" height="16" viewBox="0 0 16 16"><defs><style>.a{fill:#127fba;}</style></defs><g transform="translate(-4.5 -4.5)"><path class="a" d="M17.683,7.731a.76.76,0,0,0-.492-.179.759.759,0,0,0-.754.821.757.757,0,0,0,.267.517,6.427,6.427,0,0,1-4.2,11.34A6.475,6.475,0,0,1,6.021,13.78,6.4,6.4,0,0,1,8.3,8.889a.757.757,0,0,0,.087-1.071.758.758,0,0,0-1.067-.087A7.905,7.905,0,0,0,4.5,13.775,8,8,0,1,0,17.683,7.731Z" transform="translate(0 -1.241)"/><path class="a" d="M17.534,13.284a.773.773,0,0,0,.772-.772V5.272a.772.772,0,1,0-1.544,0v7.24A.773.773,0,0,0,17.534,13.284Z" transform="translate(-4.997)"/></g></svg>