<svg xmlns="http://www.w3.org/2000/svg" width="12.883" height="10.074" viewBox="0 0 12.883 10.074"><defs><style>.a{fill:#127fba;}</style></defs><g transform="translate(0 -55.784)"><g transform="translate(0 58.193)"><path class="a" d="M12.5,158.4h-.761v-5.036a.378.378,0,0,0-.378-.378H9.277a.378.378,0,0,0-.378.378V158.4H7.864v-6.532a.378.378,0,0,0-.378-.378H5.4a.378.378,0,0,0-.378.378V158.4H3.985v-5.435a.378.378,0,0,0-.378-.378H1.518a.378.378,0,0,0-.378.378V158.4H.378a.378.378,0,1,0,0,.755H12.5a.378.378,0,1,0,0-.755Z" transform="translate(0 -151.493)"/></g><path class="a" d="M20.408,57.221a.378.378,0,0,0-.29-.4l-1.22-.3a.378.378,0,1,0-.178.734l.345.084-.978.6-3.709-2.112a.377.377,0,0,0-.347-.014L10.343,57.55l-1.762-1.1a.378.378,0,1,0-.4.641L10.118,58.3a.378.378,0,0,0,.36.021l3.7-1.735,3.734,2.126a.39.39,0,0,0,.385-.007l1.186-.732-.079.37a.378.378,0,0,0,.739.158l.262-1.226a.435.435,0,0,0,.008-.054Z" transform="translate(-7.802)"/></g></svg>