<svg xmlns="http://www.w3.org/2000/svg" width="10.966" height="13.144" viewBox="0 0 10.966 13.144"><defs><style>.a{fill:#111;}</style></defs><path class="a" d="M90.2,6.331A3.063,3.063,0,0,0,92.435,5.4a3.063,3.063,0,0,0,.927-2.238A3.064,3.064,0,0,0,92.435.927a3.165,3.165,0,0,0-4.477,0,3.063,3.063,0,0,0-.927,2.238A3.063,3.063,0,0,0,87.959,5.4,3.064,3.064,0,0,0,90.2,6.331ZM88.5,1.472a2.395,2.395,0,0,1,3.387,0,2.289,2.289,0,0,1,.7,1.694,2.289,2.289,0,0,1-.7,1.694,2.394,2.394,0,0,1-3.387,0,2.288,2.288,0,0,1-.7-1.694A2.288,2.288,0,0,1,88.5,1.472Zm0,0" transform="translate(-84.797 0)"/><path class="a" d="M10.939,251.074a7.819,7.819,0,0,0-.106-.831,6.544,6.544,0,0,0-.2-.835,4.125,4.125,0,0,0-.343-.779,2.936,2.936,0,0,0-.518-.675,2.283,2.283,0,0,0-.744-.467,2.57,2.57,0,0,0-.949-.172.964.964,0,0,0-.515.218c-.154.1-.335.217-.536.346a3.071,3.071,0,0,1-.694.306,2.693,2.693,0,0,1-1.7,0,3.062,3.062,0,0,1-.693-.305c-.2-.127-.38-.244-.536-.346a.962.962,0,0,0-.514-.218,2.566,2.566,0,0,0-.949.172,2.28,2.28,0,0,0-.744.467,2.936,2.936,0,0,0-.517.674,4.132,4.132,0,0,0-.343.779,6.558,6.558,0,0,0-.2.835,7.766,7.766,0,0,0-.106.831c-.017.251-.026.512-.026.776A2.183,2.183,0,0,0,.648,253.5a2.333,2.333,0,0,0,1.67.609H8.647a2.333,2.333,0,0,0,1.67-.609,2.182,2.182,0,0,0,.648-1.651C10.966,251.586,10.957,251.325,10.939,251.074Zm-1.153,1.87a1.571,1.571,0,0,1-1.139.4H2.319a1.571,1.571,0,0,1-1.139-.4,1.425,1.425,0,0,1-.409-1.093c0-.246.008-.489.024-.723a7,7,0,0,1,.1-.748,5.785,5.785,0,0,1,.18-.736,3.365,3.365,0,0,1,.279-.633,2.177,2.177,0,0,1,.38-.5,1.514,1.514,0,0,1,.495-.308,1.772,1.772,0,0,1,.607-.117c.027.014.075.042.153.092.158.1.341.221.543.35a3.818,3.818,0,0,0,.871.389,3.463,3.463,0,0,0,2.17,0,3.82,3.82,0,0,0,.871-.389c.206-.132.384-.246.542-.35.078-.051.126-.078.153-.092a1.774,1.774,0,0,1,.607.117,1.516,1.516,0,0,1,.495.308,2.17,2.17,0,0,1,.38.5,3.352,3.352,0,0,1,.279.633,5.771,5.771,0,0,1,.18.736,7.064,7.064,0,0,1,.1.748h0c.016.233.025.476.025.723A1.425,1.425,0,0,1,9.786,252.944Zm0,0" transform="translate(0 -240.967)"/></svg>