<svg xmlns="http://www.w3.org/2000/svg" width="12.883" height="11.653" viewBox="0 0 12.883 11.653"><defs><style>.a{fill:#111;}.b{fill:none;stroke:#111;stroke-width:0.7px;}</style></defs><g transform="translate(-36 -279)"><path class="a" d="M282.279,8.487H271.268a.937.937,0,0,1-.936-.936V.936A.937.937,0,0,1,271.268,0h11.011a.937.937,0,0,1,.936.936V7.551A.937.937,0,0,1,282.279,8.487ZM271.268.8a.134.134,0,0,0-.134.134V7.551a.134.134,0,0,0,.134.134h11.011a.134.134,0,0,0,.134-.134V.936A.134.134,0,0,0,282.279.8Zm0,0" transform="translate(-234.332 279)"/><path class="a" d="M282.279,2.487H271.268a.937.937,0,0,1-.936-.936V.936A.937.937,0,0,1,271.268,0h11.011a.937.937,0,0,1,.936.936v.615A.937.937,0,0,1,282.279,2.487ZM271.268.8a.134.134,0,0,0-.134.134v.615a.134.134,0,0,0,.134.134h11.011a.134.134,0,0,0,.134-.134V.936A.134.134,0,0,0,282.279.8Zm0,0" transform="translate(-234.332 288.166)"/><path class="b" d="M2.525,1.28.431.041A.284.284,0,0,0,0,.287V2.763a.285.285,0,0,0,.431.246L2.525,1.771a.285.285,0,0,0,0-.492Z" transform="translate(41.339 281.752)"/></g></svg>