<svg xmlns="http://www.w3.org/2000/svg" width="80" height="50" viewBox="0 0 80 50"><defs><style>.a{fill:#cfe5f1;}.a,.b{stroke:#127fba;}.b,.e{fill:none;}.b{stroke-linecap:round;stroke-linejoin:round;stroke-width:3px;}.c{fill:#127fba;}.d{stroke:none;}</style></defs><g transform="translate(-1123 -452)"><g class="a" transform="translate(1123 452)"><rect class="d" width="80" height="50" rx="10"/><rect class="e" x="0.5" y="0.5" width="79" height="49" rx="9.5"/></g><path class="b" d="M27,15A12,12,0,1,1,15,3,12,12,0,0,1,27,15Z" transform="translate(1148 462)"/><path class="c" d="M10.333,5.229,1.763.162A1.162,1.162,0,0,0,0,1.168V11.3A1.168,1.168,0,0,0,1.763,12.3l8.57-5.064A1.167,1.167,0,0,0,10.333,5.229Z" transform="translate(1159.089 470.75)"/></g></svg>